<?xml version="1.0" encoding="utf-8"?>
<!-- Generator: Adobe Illustrator 21.1.0, SVG Export Plug-In . SVG Version: 6.00 Build 0)  -->
<svg version="1.1" id="Layer_1" xmlns="http://www.w3.org/2000/svg" xmlns:xlink="http://www.w3.org/1999/xlink" x="0px" y="0px"
	 viewBox="0 0 1391.8 1083.6" style="enable-background:new 0 0 1391.8 1083.6;" xml:space="preserve">
<style type="text/css">
	.st0{fill:#FFFFFF;}
</style>
<g>
	<path class="st0" d="M870.7,260.6v260.6h260.6V260.6H870.7z M1079.1,469H974.9v-52.1h-52.1V312.7h156.3V469z"/>
	<g>
		<path class="st0" d="M260.6,521.1v-57.9h70.3v57.9H260.6z M330.8,560.7v255.9h-70.3V560.7H330.8z"/>
		<path class="st0" d="M449,755.3c10.6,10.2,25.7,15.3,45.5,15.3c14.2,0,26.4-3.5,36.6-10.6c10.2-7.1,16.5-14.6,18.8-22.5h61.9
			c-9.9,30.7-25.1,52.6-45.5,65.8c-20.5,13.2-45.2,19.8-74.3,19.8c-20.1,0-38.3-3.2-54.5-9.7c-16.2-6.4-29.9-15.6-41.1-27.5
			c-11.2-11.9-19.9-26.1-26-42.6c-6.1-16.5-9.2-34.7-9.2-54.5c0-19.1,3.1-37,9.4-53.5c6.3-16.5,15.2-30.8,26.7-42.8
			c11.5-12,25.3-21.5,41.3-28.5c16-6.9,33.7-10.4,53.2-10.4c21.8,0,40.8,4.2,56.9,12.6c16.2,8.4,29.5,19.7,39.9,33.9
			c10.4,14.2,17.9,30.4,22.5,48.5c4.6,18.2,6.3,37.1,5,56.9H431.7C432.7,728.5,438.5,745,449,755.3z M528.5,620.6
			c-8.4-9.2-21.2-13.9-38.4-13.9c-11.2,0-20.5,1.9-28,5.7c-7.4,3.8-13.4,8.5-17.8,14.1c-4.5,5.6-7.6,11.6-9.4,17.8
			c-1.8,6.3-2.9,11.9-3.2,16.8h114.4C542.7,643.4,536.9,629.9,528.5,620.6z"/>
		<path class="st0" d="M622.4,560.7h80.2l45.1,66.8l44.6-66.8H870l-84.2,119.8l94.6,136.1h-80.2L746.7,736l-53.5,80.7h-78.7
			L706.6,682L622.4,560.7z"/>
	</g>
</g>
</svg>
